<?xml version="1.0" encoding="UTF-8" standalone="no"?>
<!-- Created with Inkscape (http://www.inkscape.org/) -->

<svg
   version="1.1"
   id="svg9"
   width="32"
   height="32"
   viewBox="0 0 666.66668 666.66717"
   sodipodi:docname="2023_Facebook_icon.svg"
   inkscape:export-filename="../fb_sparkle.svg"
   inkscape:export-xdpi="4.6079998"
   inkscape:export-ydpi="4.6079998"
   xmlns:inkscape="http://www.inkscape.org/namespaces/inkscape"
   xmlns:sodipodi="http://sodipodi.sourceforge.net/DTD/sodipodi-0.dtd"
   xmlns="http://www.w3.org/2000/svg"
   xmlns:svg="http://www.w3.org/2000/svg">
  <sodipodi:namedview
     id="namedview29"
     pagecolor="#ffffff"
     bordercolor="#000000"
     borderopacity="0.25"
     inkscape:showpageshadow="2"
     inkscape:pageopacity="0.0"
     inkscape:pagecheckerboard="0"
     inkscape:deskcolor="#d1d1d1"
     showgrid="false" />
  <defs
     id="defs13" />
  <path
     id="rect310"
     style="fill:#ffffff;stroke:none;stroke-width:1.83856"
     d="m 177.80103,59.729547 a 132.80714,132.80714 0 0 1 -36.43393,68.496633 132.80714,132.80714 0 0 1 -61.675483,34.68674 132.80714,132.80714 0 0 1 64.532313,35.52445 132.80714,132.80714 0 0 1 33.62931,56.98444 132.80714,132.80714 0 0 1 33.4052,-57.3043 132.80714,132.80714 0 0 1 63.43136,-35.20675 132.80714,132.80714 0 0 1 -60.57453,-34.36474 132.80714,132.80714 0 0 1 -36.31424,-68.816473 z" />
  <path
     id="rect310-3-5"
     style="fill:#ffffff;stroke:none;stroke-width:0.933809"
     d="m 489.13098,481.90788 a 67.453125,67.453125 0 0 1 -18.5049,34.78964 67.453125,67.453125 0 0 1 -31.32515,17.6175 67.453125,67.453125 0 0 1 32.77614,18.04296 67.453125,67.453125 0 0 1 17.08043,28.94256 67.453125,67.453125 0 0 1 16.96659,-29.10501 67.453125,67.453125 0 0 1 32.21697,-17.88162 67.453125,67.453125 0 0 1 -30.76597,-17.45394 67.453125,67.453125 0 0 1 -18.44411,-34.95209 z" />
  <path
     id="rect310-3-5-2"
     style="fill:#ffffff;stroke:none;stroke-width:0.933809"
     d="m 129.52167,255.42181 a 67.453125,67.453125 0 0 1 -18.5049,34.78964 67.453125,67.453125 0 0 1 -31.325153,17.6175 67.453125,67.453125 0 0 1 32.776143,18.04296 67.453125,67.453125 0 0 1 17.08043,28.94256 67.453125,67.453125 0 0 1 16.96659,-29.10501 67.453125,67.453125 0 0 1 32.21697,-17.88162 67.453125,67.453125 0 0 1 -30.76597,-17.45394 67.453125,67.453125 0 0 1 -18.44411,-34.95209 z" />
</svg>
